<?xml version="1.0" encoding="utf-8"?><svg xmlns="http://www.w3.org/2000/svg" xmlns:xlink="http://www.w3.org/1999/xlink"><symbol fill="none" viewBox="0 0 22 14" id="arrow-blue" xmlns="http://www.w3.org/2000/svg"><path d="M12.857 1L20 7.2m0 0L12.857 13M20 7.2H0" stroke="#7557FF" stroke-width="1.5"/></symbol><symbol fill="none" viewBox="0 0 15 14" id="arrow-left" xmlns="http://www.w3.org/2000/svg"><path d="M6 1L1 7.2m0 0L6 13M1 7.2h14" stroke="#000" stroke-width="1.5"/></symbol><symbol fill="none" viewBox="0 0 15 14" id="arrow-right" xmlns="http://www.w3.org/2000/svg"><path d="M9 1l5 6.2m0 0L9 13m5-5.8H0" stroke="#000" stroke-width="1.5"/></symbol><symbol fill="none" viewBox="0 0 18 14" id="burger" xmlns="http://www.w3.org/2000/svg"><path d="M18 1.556H0V0h18v1.556zM18 14H0v-1.556h18V14zm0-6.235H0V6.222h18v1.543z" fill="#fff"/></symbol><symbol fill="none" viewBox="0 0 18 18" id="graduation" xmlns="http://www.w3.org/2000/svg"><g opacity=".8" clip-path="url(#eclip0_1_71)"><path d="M18 6.36V15a.75.75 0 11-1.5 0V8.814l-5.55 2.652a3.75 3.75 0 01-1.933.52 3.954 3.954 0 01-2.025-.554L1.457 8.798a2.768 2.768 0 010-4.875L7.05 1.254a3.92 3.92 0 013.962.034l5.53 2.635A2.825 2.825 0 0118 6.36zm-8.983 7.125a5.445 5.445 0 01-2.734-.729L3 11.189v2.025a3.755 3.755 0 002.64 3.584c1.091.313 2.224.466 3.36.452 1.136.013 2.269-.14 3.36-.455A3.755 3.755 0 0015 13.21v-2.018l-3.344 1.598a5.236 5.236 0 01-2.64.695v-.001z" fill="#fff"/></g><defs><clipPath id="eclip0_1_71"><path fill="#fff" d="M0 0h18v18H0z"/></clipPath></defs></symbol></svg>